<?xml version="1.0" encoding="UTF-8"?>
<svg width="700pt" height="700pt" version="1.1" viewBox="0 0 700 700" xmlns="http://www.w3.org/2000/svg">
 <g>
  <path d="m350 543.53c145.3 0 263.53-118.23 263.53-263.53s-118.23-263.53-263.53-263.53-263.53 118.23-263.53 263.53 118.23 263.53 263.53 263.53zm0-477.65c118.08 0 214.12 96.055 214.12 214.12s-96.039 214.12-214.12 214.12c-118.06 0-214.12-96.055-214.12-214.12s96.055-214.12 214.12-214.12z"/>
  <path d="m218.23 304.71h203.89l-56.641 56.641c-9.6523 9.6523-9.6523 25.281 0 34.934s25.281 9.6523 34.934 0l98.809-98.809c9.3867-9.3711 9.832-25.152 0-34.969l-98.809-98.809c-9.6523-9.6523-25.281-9.6523-34.934 0-9.6523 9.6523-9.6523 25.281 0 34.934l56.641 56.641-203.89 0.007813c-13.652 0-24.707 11.066-24.707 24.707 0.003906 13.652 11.055 24.723 24.707 24.723z"/>
 </g>
</svg>
